<?xml version="1.0" encoding="UTF-8"?>
<!DOCTYPE svg PUBLIC "-//W3C//DTD SVG 1.1//EN" "http://www.w3.org/Graphics/SVG/1.1/DTD/svg11.dtd">
<!-- Creator: CorelDRAW 2018 (64 Bit) -->
<svg xmlns="http://www.w3.org/2000/svg" xml:space="preserve" width="512px" height="130px" version="1.1" style="shape-rendering:geometricPrecision; text-rendering:geometricPrecision; image-rendering:optimizeQuality; fill-rule:evenodd; clip-rule:evenodd"
viewBox="0 0 512 130.33"
 xmlns:xlink="http://www.w3.org/1999/xlink">
 <defs>
  <style type="text/css">
   <![CDATA[
    .fil1 {fill:#3F8A8C}
    .fil2 {fill:#75A741}
    .fil0 {fill:#3F8A8C;fill-rule:nonzero}
   ]]>
  </style>
 </defs>
 <g id="Layer_x0020_1">
  <metadata id="CorelCorpID_0Corel-Layer"/>
  <g id="_2036736512896">
   <path class="fil0" d="M197.74 125.57l2.47 -18.98 9.97 11.42c0.36,0.41 0.69,0.81 0.98,1.18 0.29,0.38 0.56,0.74 0.81,1.11 0,-0.38 0.02,-0.79 0.06,-1.21 0.03,-0.43 0.09,-0.97 0.17,-1.62l1.38 -10.17 2.68 0 -2.47 18.98 -10 -11.42c-0.45,-0.51 -0.8,-0.95 -1.08,-1.3 -0.26,-0.35 -0.5,-0.69 -0.7,-1.02 -0.02,0.57 -0.1,1.43 -0.25,2.6 -0.02,0.11 -0.03,0.2 -0.04,0.26l-1.3 10.17 -2.68 0zm20.26 0l2.4 -18.27 10.25 0 -0.33 2.58 -7.42 0 -0.58 4.6 7.39 0 -0.34 2.55 -7.41 0 -0.76 5.91 7.41 0 -0.36 2.63 -10.25 0zm30.32 -13.08c-0.8,-1.04 -1.69,-1.81 -2.68,-2.31 -0.99,-0.51 -2.08,-0.76 -3.3,-0.76 -0.96,0 -1.87,0.18 -2.73,0.53 -0.85,0.34 -1.6,0.85 -2.25,1.52 -0.73,0.75 -1.29,1.61 -1.68,2.57 -0.39,0.95 -0.59,1.95 -0.59,2.99 0,1.92 0.58,3.47 1.75,4.65 1.16,1.18 2.7,1.77 4.62,1.77 1.51,0 2.79,-0.42 3.83,-1.27 1.04,-0.84 1.64,-1.94 1.81,-3.31l-4.73 0 0.31 -2.6 7.79 0c0,3.02 -0.82,5.4 -2.47,7.14 -1.64,1.74 -3.88,2.62 -6.71,2.62 -2.72,0 -4.91,-0.81 -6.56,-2.43 -1.65,-1.63 -2.48,-3.78 -2.48,-6.47 0,-1.49 0.26,-2.89 0.78,-4.18 0.52,-1.29 1.27,-2.4 2.24,-3.33 0.94,-0.9 2.02,-1.58 3.25,-2.05 1.22,-0.47 2.54,-0.7 3.96,-0.7 1.68,0 3.14,0.29 4.37,0.87 1.23,0.58 2.39,1.53 3.48,2.83l-2.01 1.92zm21.08 3.34c0,-1.92 -0.58,-3.47 -1.75,-4.64 -1.17,-1.18 -2.72,-1.77 -4.64,-1.77 -0.95,0 -1.85,0.18 -2.71,0.54 -0.86,0.36 -1.61,0.87 -2.24,1.53 -0.73,0.75 -1.29,1.61 -1.68,2.56 -0.38,0.96 -0.57,1.96 -0.57,3.01 0,1.9 0.57,3.45 1.73,4.63 1.15,1.19 2.65,1.78 4.5,1.78 2.09,0 3.84,-0.73 5.24,-2.19 1.41,-1.46 2.12,-3.27 2.12,-5.45zm-6.24 -8.96c2.77,0 4.99,0.81 6.63,2.42 1.65,1.62 2.47,3.78 2.47,6.5 0,1.45 -0.27,2.82 -0.8,4.11 -0.54,1.28 -1.3,2.4 -2.29,3.35 -0.96,0.9 -2.06,1.58 -3.32,2.06 -1.25,0.48 -2.59,0.72 -4.01,0.72 -2.65,0 -4.79,-0.82 -6.42,-2.45 -1.63,-1.63 -2.45,-3.77 -2.45,-6.42 0,-1.48 0.27,-2.87 0.79,-4.16 0.53,-1.3 1.27,-2.41 2.25,-3.35 0.94,-0.89 2.02,-1.58 3.26,-2.06 1.24,-0.48 2.53,-0.72 3.89,-0.72zm0.3 -1.36l-1.65 0 2.77 -4.37 2.65 0 -3.77 4.37zm26.71 2.99l-0.46 3.12c-0.71,-0.74 -1.48,-1.29 -2.3,-1.65 -0.83,-0.37 -1.73,-0.55 -2.71,-0.55 -1,0 -1.92,0.18 -2.77,0.52 -0.86,0.35 -1.58,0.84 -2.18,1.49 -0.71,0.76 -1.25,1.63 -1.63,2.62 -0.38,0.98 -0.57,2 -0.57,3.06 0,1.88 0.58,3.41 1.73,4.59 1.15,1.18 2.64,1.77 4.47,1.77 0.92,0 1.8,-0.16 2.64,-0.47 0.85,-0.32 1.67,-0.79 2.46,-1.42l-0.64 3.5c-0.83,0.33 -1.63,0.57 -2.4,0.73 -0.76,0.16 -1.49,0.24 -2.2,0.24 -2.66,0 -4.81,-0.81 -6.44,-2.44 -1.64,-1.62 -2.46,-3.76 -2.46,-6.4 0,-1.47 0.26,-2.86 0.78,-4.17 0.52,-1.32 1.26,-2.46 2.22,-3.41 0.89,-0.89 1.91,-1.58 3.05,-2.04 1.15,-0.46 2.39,-0.7 3.7,-0.7 1.18,0 2.24,0.13 3.19,0.4 0.94,0.27 1.78,0.67 2.52,1.21zm1.35 17.07l2.4 -18.27 2.91 0 -2.43 18.27 -2.88 0zm23.86 -9.74c0,-1.92 -0.59,-3.47 -1.76,-4.64 -1.16,-1.18 -2.71,-1.77 -4.63,-1.77 -0.95,0 -1.86,0.18 -2.72,0.54 -0.86,0.36 -1.61,0.87 -2.24,1.53 -0.73,0.75 -1.29,1.61 -1.67,2.56 -0.38,0.96 -0.57,1.96 -0.57,3.01 0,1.9 0.57,3.45 1.72,4.63 1.16,1.19 2.66,1.78 4.51,1.78 2.08,0 3.83,-0.73 5.24,-2.19 1.41,-1.46 2.12,-3.27 2.12,-5.45zm-6.24 -8.96c2.77,0 4.99,0.81 6.63,2.42 1.65,1.62 2.47,3.78 2.47,6.5 0,1.45 -0.27,2.82 -0.81,4.11 -0.53,1.28 -1.29,2.4 -2.28,3.35 -0.96,0.9 -2.06,1.58 -3.32,2.06 -1.26,0.48 -2.59,0.72 -4.01,0.72 -2.66,0 -4.79,-0.82 -6.43,-2.45 -1.63,-1.63 -2.44,-3.77 -2.44,-6.42 0,-1.48 0.26,-2.87 0.79,-4.16 0.52,-1.3 1.27,-2.41 2.25,-3.35 0.93,-0.89 2.02,-1.58 3.26,-2.06 1.24,-0.48 2.53,-0.72 3.89,-0.72zm10.1 15.55l2 -1.66c0.5,1.01 1.04,1.72 1.61,2.17 0.58,0.45 1.26,0.67 2.03,0.67 0.96,0 1.75,-0.28 2.35,-0.85 0.6,-0.56 0.9,-1.3 0.9,-2.21 0,-0.64 -0.16,-1.18 -0.48,-1.63 -0.32,-0.44 -0.87,-0.9 -1.67,-1.36 -0.17,-0.1 -0.41,-0.24 -0.74,-0.43 -1.36,-0.75 -2.28,-1.4 -2.76,-1.92 -0.34,-0.38 -0.6,-0.81 -0.77,-1.3 -0.17,-0.49 -0.25,-1.02 -0.25,-1.59 0,-1.61 0.51,-2.92 1.54,-3.93 1.03,-1.01 2.38,-1.51 4.04,-1.51 1.13,0 2.11,0.23 2.95,0.68 0.85,0.46 1.55,1.15 2.1,2.05l-1.75 1.61c-0.41,-0.66 -0.86,-1.16 -1.36,-1.48 -0.5,-0.33 -1.05,-0.49 -1.67,-0.49 -0.9,0 -1.62,0.26 -2.18,0.79 -0.56,0.52 -0.84,1.2 -0.84,2.03 0,1 0.81,1.93 2.41,2.79 0.4,0.21 0.71,0.37 0.91,0.5 1.23,0.71 2.1,1.46 2.61,2.23 0.51,0.77 0.77,1.71 0.77,2.82 0,1.73 -0.56,3.11 -1.68,4.12 -1.11,1.02 -2.62,1.53 -4.54,1.53 -1.29,0 -2.4,-0.3 -3.32,-0.9 -0.92,-0.59 -1.66,-1.5 -2.21,-2.73zm21.94 3.15l2.4 -18.27 2.91 0 -2.43 18.27 -2.88 0zm7.07 0l2.47 -18.98 9.97 11.42c0.36,0.41 0.69,0.81 0.98,1.18 0.29,0.38 0.56,0.74 0.81,1.11 0,-0.38 0.02,-0.79 0.06,-1.21 0.04,-0.43 0.1,-0.97 0.18,-1.62l1.37 -10.17 2.68 0 -2.47 18.98 -9.99 -11.42c-0.45,-0.51 -0.81,-0.95 -1.08,-1.3 -0.27,-0.35 -0.51,-0.69 -0.71,-1.02 -0.01,0.57 -0.1,1.43 -0.25,2.6 -0.01,0.11 -0.03,0.2 -0.04,0.26l-1.29 10.17 -2.69 0zm23.14 0l2.07 -15.64 -4.92 0 0.35 -2.63 12.47 0 -0.36 2.63 -4.65 0 -2.07 15.64 -2.89 0zm10.12 0l2.4 -18.27 10.25 0 -0.33 2.58 -7.41 0 -0.59 4.6 7.39 0 -0.34 2.55 -7.41 0 -0.76 5.91 7.41 0 -0.36 2.63 -10.25 0zm13.9 0l2.39 -18.27 2.87 0 -2.02 15.46 6.82 0 -0.38 2.81 -9.68 0zm12.04 0l2.39 -18.27 2.92 0 -2.43 18.27 -2.88 0zm23.49 -13.08c-0.8,-1.04 -1.69,-1.81 -2.68,-2.31 -0.99,-0.51 -2.08,-0.76 -3.3,-0.76 -0.96,0 -1.87,0.18 -2.73,0.53 -0.85,0.34 -1.6,0.85 -2.25,1.52 -0.73,0.75 -1.29,1.61 -1.68,2.57 -0.39,0.95 -0.59,1.95 -0.59,2.99 0,1.92 0.58,3.47 1.75,4.65 1.16,1.18 2.71,1.77 4.62,1.77 1.51,0 2.79,-0.42 3.83,-1.27 1.04,-0.84 1.64,-1.94 1.81,-3.31l-4.73 0 0.31 -2.6 7.79 0c0,3.02 -0.82,5.4 -2.47,7.14 -1.64,1.74 -3.88,2.62 -6.7,2.62 -2.73,0 -4.92,-0.81 -6.57,-2.43 -1.65,-1.63 -2.47,-3.78 -2.47,-6.47 0,-1.49 0.26,-2.89 0.77,-4.18 0.52,-1.29 1.27,-2.4 2.24,-3.33 0.94,-0.9 2.02,-1.58 3.25,-2.05 1.23,-0.47 2.55,-0.7 3.96,-0.7 1.68,0 3.14,0.29 4.37,0.87 1.23,0.58 2.39,1.53 3.48,2.83l-2.01 1.92zm4.3 13.08l2.39 -18.27 10.25 0 -0.32 2.58 -7.42 0 -0.59 4.6 7.4 0 -0.34 2.55 -7.42 0 -0.76 5.91 7.42 0 -0.36 2.63 -10.25 0zm13.89 0l2.47 -18.98 9.98 11.42c0.35,0.41 0.68,0.81 0.97,1.18 0.29,0.38 0.56,0.74 0.81,1.11 0,-0.38 0.02,-0.79 0.06,-1.21 0.04,-0.43 0.1,-0.97 0.18,-1.62l1.37 -10.17 2.69 0 -2.47 18.98 -10 -11.42c-0.45,-0.51 -0.81,-0.95 -1.08,-1.3 -0.27,-0.35 -0.51,-0.69 -0.71,-1.02 -0.01,0.57 -0.1,1.43 -0.25,2.6 -0.01,0.11 -0.03,0.2 -0.03,0.26l-1.3 10.17 -2.69 0zm23.15 0l2.07 -15.64 -4.93 0 0.35 -2.63 12.47 0 -0.36 2.63 -4.65 0 -2.07 15.64 -2.88 0zm10.11 0l2.4 -18.27 10.25 0 -0.32 2.58 -7.42 0 -0.59 4.6 7.39 0 -0.33 2.55 -7.42 0 -0.76 5.91 7.41 0 -0.36 2.63 -10.25 0zm12.8 -3.15l2.01 -1.66c0.5,1.01 1.04,1.72 1.61,2.17 0.58,0.45 1.25,0.67 2.03,0.67 0.96,0 1.74,-0.28 2.34,-0.85 0.6,-0.56 0.9,-1.3 0.9,-2.21 0,-0.64 -0.15,-1.18 -0.47,-1.63 -0.32,-0.44 -0.88,-0.9 -1.67,-1.36 -0.17,-0.1 -0.42,-0.24 -0.74,-0.43 -1.37,-0.75 -2.29,-1.4 -2.76,-1.92 -0.34,-0.38 -0.6,-0.81 -0.77,-1.3 -0.17,-0.49 -0.25,-1.02 -0.25,-1.59 0,-1.61 0.51,-2.92 1.54,-3.93 1.03,-1.01 2.38,-1.51 4.04,-1.51 1.13,0 2.11,0.23 2.95,0.68 0.85,0.46 1.54,1.15 2.09,2.05l-1.74 1.61c-0.41,-0.66 -0.86,-1.16 -1.36,-1.48 -0.5,-0.33 -1.06,-0.49 -1.67,-0.49 -0.9,0 -1.63,0.26 -2.18,0.79 -0.56,0.52 -0.84,1.2 -0.84,2.03 0,1 0.81,1.93 2.41,2.79 0.4,0.21 0.7,0.37 0.91,0.5 1.23,0.71 2.1,1.46 2.61,2.23 0.51,0.77 0.76,1.71 0.76,2.82 0,1.73 -0.55,3.11 -1.67,4.12 -1.11,1.02 -2.63,1.53 -4.54,1.53 -1.3,0 -2.4,-0.3 -3.32,-0.9 -0.92,-0.59 -1.66,-1.5 -2.22,-2.73z"/>
   <path class="fil1" d="M197.38 27.2l17.14 0 0 42.93 17.07 -17.13 17.07 17.13 0 -42.93 17.01 0 0 68.36 -15.77 0 -18.31 -18.38 -18.37 18.38 -15.84 0 0 -68.36zm124.4 38.48l0 0 0 -4.33c0,-4.54 -1.44,-8.48 -4.33,-11.82 -3.01,-3.5 -7.26,-5.25 -12.74,-5.25 -5.53,0 -9.76,1.69 -12.68,5.07 -2.93,3.42 -4.4,7.42 -4.4,12l0 4.33 34.15 0zm73.18 8.54l0 0c0,-1.7 -0.6,-2.89 -1.79,-3.59 -0.74,-0.5 -1.59,-0.74 -2.54,-0.74l-29.81 0 0 8.59 29.81 0c1.36,0 2.43,-0.37 3.22,-1.11 0.74,-0.78 1.11,-1.83 1.11,-3.15zm21.9 -47.02l0 0 17.07 0 0 68.36 -17.07 0 0 -68.36zm21.9 17.08l0 0 0 -17.08 68.29 0 0 15.96 -40.21 35.32 40.21 0 0 17.08 -68.29 0 0 -15.96 40.21 -35.32 -40.21 0zm-48.13 -17.08l0 0c1.69,0 3.55,0.29 5.57,0.87 4.12,1.03 7.53,2.86 10.21,5.5 3.71,3.71 5.56,8.73 5.56,15.04 0,5.19 -1.23,9.44 -3.71,12.74 2.48,3.3 3.71,7.59 3.71,12.87 0,6.18 -1.83,11.13 -5.5,14.84 -2.72,2.68 -6.13,4.54 -10.21,5.57 -2.39,0.62 -4.27,0.93 -5.63,0.93l-46.95 0 0 -68.36 46.95 0zm-62.11 8.79l0 0c4.13,4.16 7.1,9.63 8.91,16.39 0.91,3.55 1.36,6.54 1.36,8.97l0 34.21 -17.01 0 0 -12.87 -34.15 0 0 12.87 -17.13 0 0 -34.21c0,-2.72 0.43,-5.71 1.3,-8.97 1.69,-6.6 4.66,-12.04 8.91,-16.33 5.93,-5.9 13.93,-8.85 24,-8.85 9.9,0 17.83,2.93 23.81,8.79zm32.3 8.29l0 0 0 8.59 29.81 0c1.36,0 2.43,-0.37 3.22,-1.11 0.74,-0.78 1.11,-1.84 1.11,-3.15 0,-1.7 -0.6,-2.89 -1.79,-3.59 -0.74,-0.5 -1.59,-0.74 -2.54,-0.74l-29.81 0zm-298.3 -37.93l0 0 19.86 19.99 19.92 -19.99 20.17 20.17 -59.95 60.07 -59.81 -59.88 20.04 -20.23 19.92 19.86 19.85 -19.99z"/>
   <polygon class="fil2" points="69.76,93.76 129.64,33.82 189.52,93.76 169.3,113.87 149.44,94.01 129.64,113.87 109.79,94.01 89.87,113.87 "/>
  </g>
 </g>
</svg>
